<svg xmlns="http://www.w3.org/2000/svg" xmlns:xlink="http://www.w3.org/1999/xlink" width="37.518" height="37.518" viewBox="0 0 37.518 37.518"><defs><style>.a{fill:#fff;}.b{clip-path:url(#a);}</style><clipPath id="a"><path class="a" d="M0,18.759A18.759,18.759,0,1,1,18.759,37.518,18.759,18.759,0,0,1,0,18.759Z"/></clipPath></defs><g transform="translate(0)"><path class="a" d="M0,18.759A18.759,18.759,0,1,1,18.759,37.518,18.759,18.759,0,0,1,0,18.759Z" transform="translate(0)"/><g class="b" transform="translate(0)"><path d="M10,20c-2.693,0-3.049-.011-4.123-.06a7.408,7.408,0,0,1-2.428-.465,4.891,4.891,0,0,1-1.771-1.154A4.9,4.9,0,0,1,.525,16.549,7.4,7.4,0,0,1,.06,14.123C.011,13.048,0,12.692,0,10S.011,6.962.06,5.876A7.349,7.349,0,0,1,.525,3.449,4.916,4.916,0,0,1,1.679,1.678,4.9,4.9,0,0,1,3.45.525,7.406,7.406,0,0,1,5.877.06C6.951.011,7.307,0,10,0s3.048.011,4.122.06A7.424,7.424,0,0,1,16.55.525,4.889,4.889,0,0,1,18.32,1.678,4.9,4.9,0,0,1,19.475,3.45a7.46,7.46,0,0,1,.465,2.427C19.986,6.918,20,7.232,20,10s-.014,3.082-.061,4.123a7.466,7.466,0,0,1-.465,2.427,5.124,5.124,0,0,1-2.924,2.926,7.41,7.41,0,0,1-2.428.465C13.048,19.989,12.693,20,10,20ZM9.1,1.8c-1.866,0-2.216.014-3.143.056A5.526,5.526,0,0,0,4.1,2.2a3.1,3.1,0,0,0-1.15.749A3.094,3.094,0,0,0,2.2,4.1,5.535,5.535,0,0,0,1.86,5.956C1.813,7,1.8,7.314,1.8,9.995s.01,3,.057,4.042A5.514,5.514,0,0,0,2.2,15.893a3.1,3.1,0,0,0,.748,1.149,3.089,3.089,0,0,0,1.15.748,5.557,5.557,0,0,0,1.857.345c1.064.048,1.382.058,4.04.058s2.977-.01,4.041-.058A5.493,5.493,0,0,0,15.9,17.79a3.312,3.312,0,0,0,1.9-1.9,5.515,5.515,0,0,0,.345-1.856c.048-1.054.058-1.37.058-4.039s-.01-2.986-.058-4.04A5.514,5.514,0,0,0,17.8,4.1a3.1,3.1,0,0,0-.748-1.15A3.093,3.093,0,0,0,15.9,2.2a5.547,5.547,0,0,0-1.857-.344C13,1.812,12.683,1.8,10,1.8H9.1ZM10,15.134A5.135,5.135,0,1,1,15.136,10,5.141,5.141,0,0,1,10,15.134Zm0-8.468A3.333,3.333,0,1,0,13.334,10,3.337,3.337,0,0,0,10,6.667Zm5.338-.8a1.2,1.2,0,1,1,1.2-1.2A1.2,1.2,0,0,1,15.339,5.862Z" transform="translate(8.061 8.759)"/></g></g></svg>