<svg xmlns="http://www.w3.org/2000/svg" width="37.518" height="37.518" viewBox="0 0 37.518 37.518"><defs><style>.a{fill:#0077b5;}.b{fill:#fff;}</style></defs><path class="a" d="M0,18.759A18.759,18.759,0,1,1,18.759,37.518,18.759,18.759,0,0,1,0,18.759Z"/><path class="b" d="M6.856,18.931s.056-11.574,0-12.773h4.252V7.967a4.221,4.221,0,0,1,3.832-2.11c2.8,0,4.895,1.826,4.895,5.75V18.93H15.583V12.1c0-1.716-.616-2.888-2.154-2.888a2.326,2.326,0,0,0-2.181,1.552,2.9,2.9,0,0,0-.14,1.036v7.134Zm-6.6,0V6.157H4.5V18.93ZM2.35,4.414A2.213,2.213,0,1,1,2.405,0a2.214,2.214,0,1,1-.028,4.414Z" transform="translate(8.754 9.379)"/></svg>