<svg xmlns="http://www.w3.org/2000/svg" width="53.713" height="33.284" viewBox="0 0 53.713 33.284"><defs><style>.a{fill:#f79f1a;}.b{fill:#ea001b;}.c{fill:#ff5f01;}</style></defs><path class="a" d="M33.221,16.642A16.611,16.611,0,1,1,16.611,0,16.626,16.626,0,0,1,33.221,16.642Z" transform="translate(20.492 0)"/><path class="b" d="M33.221,16.642A16.611,16.611,0,1,1,16.611,0,16.626,16.626,0,0,1,33.221,16.642Z" transform="translate(0 0)"/><path class="c" d="M6.363,0a16.668,16.668,0,0,0,0,26.2,16.627,16.627,0,0,0,6.363-13.1A16.62,16.62,0,0,0,6.363,0Z" transform="translate(20.493 3.541)"/></svg>