<svg xmlns="http://www.w3.org/2000/svg" width="37.518" height="37.518" viewBox="0 0 37.518 37.518"><defs><style>.a{fill:#55acee;}.b{fill:#fff;}</style></defs><g transform="translate(0)"><path class="a" d="M0,18.759A18.759,18.759,0,1,1,18.759,37.518,18.759,18.759,0,0,1,0,18.759Z" transform="translate(0)"/><path class="b" d="M8.818,3.992l.039.649L8.2,4.562A10.672,10.672,0,0,1,1.955,1.488L1.089.627l-.223.636A3.823,3.823,0,0,0,1.68,5.184c.525.556.407.636-.5.3a1.547,1.547,0,0,0-.617-.146,4.746,4.746,0,0,0,.472,1.775,4.237,4.237,0,0,0,1.8,1.7l.643.3-.761.013c-.735,0-.761.013-.682.291A3.967,3.967,0,0,0,4.488,11.6l.814.278-.709.424a7.388,7.388,0,0,1-3.517.98A3.885,3.885,0,0,0,0,13.384,9.982,9.982,0,0,0,2.532,14.55a11.084,11.084,0,0,0,8.608-.98,11.519,11.519,0,0,0,4.369-5.14A13.664,13.664,0,0,0,16.4,4.456c0-.609.039-.689.774-1.417a8.65,8.65,0,0,0,.918-1.02c.131-.252.118-.252-.551-.026-1.115.4-1.273.344-.722-.252A3.853,3.853,0,0,0,17.714.323c0-.04-.2.026-.42.146a7.32,7.32,0,0,1-1.155.45l-.709.225L14.788.707A5.341,5.341,0,0,0,13.672.124a4.483,4.483,0,0,0-2.3.053A3.793,3.793,0,0,0,8.818,3.992Z" transform="translate(9.38 11.255)"/></g></svg>