<svg xmlns="http://www.w3.org/2000/svg" width="37.52" height="37.52" viewBox="0 0 37.52 37.52"><defs><style>.a{fill:red;}.b{fill:#fff;}</style></defs><path class="a" d="M0,18.76A18.76,18.76,0,1,1,18.76,37.52,18.76,18.76,0,0,1,0,18.76Z"/><path class="b" d="M19.549,2.252A2.541,2.541,0,0,0,17.783.43C16.226,0,9.983,0,9.983,0s-6.243,0-7.8.43A2.541,2.541,0,0,0,.417,2.252,27.643,27.643,0,0,0,0,7.21a27.644,27.644,0,0,0,.417,4.958,2.542,2.542,0,0,0,1.765,1.821c1.557.43,7.8.43,7.8.43s6.244,0,7.8-.43a2.542,2.542,0,0,0,1.765-1.821,27.636,27.636,0,0,0,.417-4.958,27.636,27.636,0,0,0-.417-4.958" transform="translate(8.777 11.862)"/><path class="a" d="M0,6.269V0L5.015,3.135Z" transform="translate(16.877 16.25)"/></svg>